<?xml version="1.0" standalone="no"?>
<!DOCTYPE svg PUBLIC "-//W3C//DTD SVG 20010904//EN"
 "http://www.w3.org/TR/2001/REC-SVG-20010904/DTD/svg10.dtd">
<svg version="1.0" xmlns="http://www.w3.org/2000/svg"
 width="260.000000pt" height="260.000000pt" viewBox="0 0 260.000000 260.000000"
 preserveAspectRatio="xMidYMid meet">
<metadata>
Created by potrace 1.11, written by Peter Selinger 2001-2013
</metadata>
<g transform="translate(0.000000,260.000000) scale(0.100000,-0.100000)"
fill="#000000" stroke="none">
<path d="M530 2524 c0 0 -9 -50 -20 -110 -10 -60 -22 -125 -25 -144 -3 -19
-21 -123 -40 -230 -19 -107 -37 -211 -40 -230 -3 -19 -12 -69 -20 -110 -13
-67 -45 -248 -60 -340 -6 -36 -61 -345 -70 -390 -2 -14 -7 -41 -9 -60 -3 -19
-21 -123 -41 -230 -19 -107 -37 -208 -40 -225 -2 -16 -6 -40 -9 -51 -2 -12 -7
-37 -10 -55 -3 -19 -8 -47 -11 -64 -21 -117 -26 -145 -31 -185 l-5 -45 247 0
248 0 7 35 c4 19 10 51 13 70 3 19 8 49 12 65 3 17 7 39 9 50 1 11 10 61 19
110 8 50 18 108 22 130 3 22 9 58 14 80 5 22 14 69 19 105 13 80 20 117 26
150 10 50 15 75 21 115 9 59 9 59 16 70 4 7 196 10 552 10 l545 0 10 45 c11
47 51 276 57 321 2 14 8 48 14 74 7 31 7 50 1 54 -5 4 -253 6 -550 6 -298 0
-541 3 -541 6 0 4 13 80 29 170 16 90 35 196 41 234 l12 70 730 0 c401 0 733
2 738 5 4 3 11 27 14 53 4 26 17 105 30 175 14 70 27 145 30 167 4 22 9 54 12
70 l5 30 -985 0 c-542 0 -986 0 -986 -1z"/>
</g>
</svg>
